# Blender v2.80 (sub 75) OBJ File: 'sphere.blend'
# www.blender.org
mtllib sphere.mtl
o sphere_Sphere
v 0.267363 0.347929 -1.684867
v 0.699961 0.037763 -1.363091
v 0.102131 -0.153931 -1.363091
v 0.865192 1.159944 -1.684865
v 1.297792 1.470105 -1.363089
v 1.297792 0.849783 -1.363089
v -0.699955 0.658089 -1.684865
v -0.865193 0.156232 -1.363091
v -1.234679 0.658088 -1.363086
v -0.699955 1.661799 -1.684865
v -1.234679 1.661800 -1.363086
v -0.865193 2.163656 -1.363090
v 0.267363 1.971959 -1.684866
v 0.102131 2.473819 -1.363091
v 0.699961 2.282125 -1.363091
v 1.832520 1.470106 -0.520656
v 1.934644 1.159944 0.000000
v 1.832520 0.849782 -0.520656
v 0.865203 -0.464104 -0.520658
v 0.597838 -0.655802 -0.000000
v 0.267365 -0.655799 -0.520658
v -1.297799 -0.153940 -0.520657
v -1.565163 0.037755 -0.000000
v -1.667284 0.347924 -0.520656
v -1.667284 1.971964 -0.520656
v -1.565163 2.282132 0.000000
v -1.297799 2.473828 -0.520656
v 0.267365 2.975687 -0.520658
v 0.597838 2.975689 0.000000
v 0.865203 2.783992 -0.520657
v 1.565163 0.037755 -0.000000
v 1.667284 0.347924 0.520656
v 1.297799 -0.153940 0.520656
v -0.597838 -0.655802 -0.000000
v -0.267365 -0.655800 0.520658
v -0.865203 -0.464104 0.520657
v -1.934644 1.159944 0.000000
v -1.832520 0.849781 0.520656
v -1.832520 1.470106 0.520656
v -0.597838 2.975689 0.000000
v -0.865203 2.783991 0.520658
v -0.267365 2.975687 0.520658
v 1.565163 2.282132 0.000000
v 1.297799 2.473828 0.520657
v 1.667284 1.971963 0.520657
v 1.234679 0.658087 1.363086
v 0.699955 0.658089 1.684865
v 0.865193 0.156231 1.363090
v -0.102131 -0.153932 1.363091
v -0.267363 0.347928 1.684866
v -0.699961 0.037762 1.363091
v -1.297792 0.849783 1.363089
v -0.865192 1.159943 1.684865
v -1.297792 1.470104 1.363089
v -0.699961 2.282125 1.363091
v -0.267363 1.971959 1.684867
v -0.102131 2.473819 1.363091
v 0.865193 2.163656 1.363091
v 0.699955 1.661798 1.684865
v 1.234679 1.661800 1.363086
v 0.441299 2.500274 1.270795
v 0.969979 2.500277 0.952655
v 0.528672 1.159943 1.812035
v 0.163365 1.656121 1.812036
v 1.591472 1.656123 0.952650
v 1.428104 1.159943 1.270786
v -1.155359 1.988306 1.270794
v -0.991995 2.484491 0.952655
v -0.427703 1.466595 1.812036
v 0.013592 2.806932 0.952656
v -1.155359 0.331581 1.270794
v -1.583065 0.638235 0.952653
v -0.427703 0.853292 1.812036
v -1.583065 1.681652 0.952653
v 0.441299 -0.180387 1.270794
v 0.013592 -0.487045 0.952656
v 0.163365 0.663766 1.812036
v -0.991995 -0.164604 0.952655
v 1.591472 0.663764 0.952650
v 0.969979 -0.180389 0.952655
v 1.684040 1.988308 -0.437886
v 1.318733 2.484499 -0.437886
v 1.855813 1.466597 0.437884
v 0.869013 2.806940 0.437886
v -0.277933 2.996465 -0.437885
v -0.869013 2.806940 -0.437886
v 0.277933 2.996465 0.437886
v -1.318733 2.484498 0.437886
v -1.855813 1.466597 -0.437883
v -1.855813 0.853290 -0.437884
v -1.684040 1.988308 0.437886
v -1.684040 0.331579 0.437886
v -0.869013 -0.487052 -0.437886
v -0.277933 -0.676578 -0.437886
v -1.318733 -0.164611 0.437886
v 0.277933 -0.676578 0.437886
v 1.318733 -0.164611 -0.437886
v 1.684040 0.331579 -0.437886
v 0.869013 -0.487053 0.437886
v 1.855813 0.853290 0.437884
v -0.013592 2.806933 -0.952655
v 0.991995 2.484491 -0.952655
v -1.591472 1.656124 -0.952649
v -0.969979 2.500277 -0.952655
v -0.969979 -0.180389 -0.952655
v -1.591472 0.663764 -0.952650
v 0.991995 -0.164604 -0.952655
v -0.013592 -0.487045 -0.952656
v 1.583065 1.681652 -0.952653
v 1.583065 0.638236 -0.952653
v 0.427703 1.466596 -1.812036
v -0.163365 1.656121 -1.812036
v 1.155359 1.988306 -1.270793
v -0.441299 2.500275 -1.270794
v -0.528672 1.159944 -1.812035
v -1.428104 1.159944 -1.270786
v -0.163365 0.663767 -1.812036
v -0.441299 -0.180387 -1.270795
v 0.427703 0.853292 -1.812036
v 1.155359 0.331581 -1.270794
v 0.822848 0.569983 -1.602405
v 0.508558 -0.384612 -0.990349
v 1.399908 0.156245 -0.842433
v -0.314294 0.205359 -1.602405
v -0.534707 -0.464088 -0.842434
v 0.000000 1.159944 -1.883732
v 1.645701 1.159944 -0.990346
v 0.822848 1.749905 -1.602405
v 1.399908 2.163642 -0.842433
v -1.331401 0.205356 -0.990346
v -1.017100 1.159944 -1.602400
v -1.730394 1.159944 -0.842433
v -1.331401 2.114532 -0.990346
v -0.314294 2.114529 -1.602405
v -0.534707 2.783976 -0.842433
v 0.508558 2.704499 -0.990349
v 1.839959 0.569980 -0.000000
v 1.839959 1.749907 0.000000
v 1.730394 1.159944 0.842433
v 0.000000 -0.749244 -0.000000
v 1.137156 -0.384621 -0.000000
v 0.534707 -0.464088 0.842433
v -1.839959 0.569980 -0.000000
v -1.137156 -0.384621 -0.000000
v -1.399908 0.156245 0.842433
v -1.137156 2.704509 0.000000
v -1.839959 1.749907 0.000000
v -1.399908 2.163642 0.842434
v 1.137156 2.704509 0.000000
v 0.000000 3.069132 0.000000
v 0.534707 2.783975 0.842434
v 1.331401 0.205355 0.990346
v -0.508558 -0.384612 0.990349
v -1.645701 1.159944 0.990346
v -0.508558 2.704499 0.990349
v 1.331401 2.114532 0.990347
v 0.314294 0.205358 1.602405
v 1.017100 1.159943 1.602400
v 0.000000 1.159943 1.883732
v -0.822848 0.569982 1.602405
v -0.822848 1.749904 1.602405
v 0.314294 2.114529 1.602405
vt 0.153317 0.756854
vt 0.128594 0.662144
vt 0.176265 0.660861
vt 0.050560 0.806986
vt 0.001461 0.740265
vt 0.050503 0.699986
vt 0.256749 0.801231
vt 0.255062 0.694614
vt 0.304140 0.732549
vt 0.382419 0.914529
vt 0.395775 0.808059
vt 0.468930 0.847503
vt 0.710034 0.924390
vt 0.620008 0.853895
vt 0.698124 0.817678
vt 0.773759 0.574557
vt 0.783231 0.473450
vt 0.813210 0.543001
vt 0.130525 0.490353
vt 0.150742 0.398355
vt 0.172138 0.488938
vt 0.282697 0.535963
vt 0.312654 0.465228
vt 0.322491 0.566455
vt 0.434009 0.652964
vt 0.464308 0.578572
vt 0.479800 0.676659
vt 0.612904 0.682072
vt 0.629889 0.584354
vt 0.660153 0.660800
vt 0.068533 0.421428
vt 0.038235 0.347036
vt 0.084025 0.323341
vt 0.234114 0.415646
vt 0.217129 0.317928
vt 0.264378 0.339200
vt 0.387456 0.526550
vt 0.377984 0.425443
vt 0.417435 0.456999
vt 0.546517 0.601645
vt 0.526300 0.509647
vt 0.567913 0.511061
vt 0.708429 0.534772
vt 0.678472 0.464037
vt 0.718265 0.433545
vt 0.791550 0.191941
vt 0.778194 0.085471
vt 0.864705 0.152497
vt 0.224233 0.146105
vt 0.314259 0.075609
vt 0.302349 0.182322
vt 0.397236 0.259735
vt 0.446335 0.193014
vt 0.446278 0.300014
vt 0.524369 0.337856
vt 0.549092 0.243146
vt 0.572040 0.339139
vt 0.650837 0.305386
vt 0.652524 0.198769
vt 0.699914 0.267451
vt 0.613261 0.349343
vt 0.652670 0.398061
vt 0.663621 0.105438
vt 0.589562 0.173287
vt 0.725146 0.343270
vt 0.748201 0.250539
vt 0.483181 0.345848
vt 0.511342 0.425538
vt 0.510728 0.170980
vt 0.583944 0.427676
vt 0.347882 0.241272
vt 0.371301 0.334918
vt 0.438484 0.098531
vt 0.443502 0.392429
vt 0.148029 0.159714
vt 0.199367 0.231803
vt 0.604225 0.000000
vt 0.295409 0.274675
vt 0.799125 0.283812
vt 0.099838 0.236230
vt 0.073155 0.152497
vt 0.737343 0.589857
vt 0.696583 0.621895
vt 0.754505 0.418763
vt 0.644969 0.500163
vt 0.570016 0.676366
vt 0.522063 0.674295
vt 0.604422 0.517976
vt 0.490049 0.514173
vt 0.398746 0.613333
vt 0.358730 0.581237
vt 0.450248 0.494282
vt 0.341568 0.410143
vt 0.249194 0.499837
vt 0.208647 0.482024
vt 0.300808 0.378105
vt 0.174242 0.323634
vt 0.094274 0.485827
vt 0.054473 0.505718
vt 0.126289 0.325705
vt 0.002971 0.386667
vt 0.007575 0.283812
vt 0.595142 0.768197
vt 0.691184 0.725325
vt 0.403350 0.716188
vt 0.495612 0.763770
vt 0.256895 0.601939
vt 0.329371 0.656730
vt 0.115567 0.574462
vt 0.188169 0.572324
vt 0.767076 0.665082
vt 0.794521 0.386667
vt 0.047727 0.607571
vt 0.021660 0.543001
vt 0.834259 0.901469
vt 1.000000 1.000000
vt 0.743657 0.758728
vt 0.543804 0.840286
vt 0.208450 1.000000
vt 0.267846 0.894562
vt 0.352426 0.749461
vt 0.193788 0.826713
vt 0.217486 0.650657
vt 0.042709 0.901469
vt 0.114953 0.829020
vt 0.793011 0.740265
vt 0.087406 0.654152
vt 0.097624 0.742023
vt 0.151830 0.576438
vt 0.079815 0.566675
vt 0.208641 0.739043
vt 0.224121 0.562485
vt 0.157362 0.909652
vt 0.013089 0.641423
vt 0.804639 0.641423
vt 0.771902 0.837934
vt 0.727216 0.675689
vt 0.842110 0.806986
vt 0.291920 0.634354
vt 0.325448 0.828956
vt 0.368567 0.666636
vt 0.446135 0.750997
vt 0.539503 0.930552
vt 0.545265 0.750673
vt 0.646402 0.758789
vt 0.029500 0.445005
vt 0.821050 0.445005
vt 0.745964 0.504226
vt 0.764341 0.333364
vt 0.192766 0.401975
vt 0.109050 0.405191
vt 0.149491 0.249327
vt 0.350189 0.495774
vt 0.274108 0.437591
vt 0.331441 0.324311
vt 0.504825 0.594809
vt 0.425275 0.554995
vt 0.475590 0.433325
vt 0.669883 0.562409
vt 0.588541 0.598025
vt 0.619896 0.437515
vt 0.050360 0.249003
vt 0.250627 0.241211
vt 0.408864 0.358577
vt 0.547605 0.423562
vt 0.687695 0.365646
vt 0.143729 0.069448
vt 0.935278 0.069448
vt 0.721223 0.171044
vt 0.553137 0.090348
vt 0.000000 0.191941
vt 0.376128 0.162066
vt 0.493399 0.257977
vt 0.604416 0.260957
vn 0.1379 -0.4299 -0.8923
vn 0.3463 -0.5846 -0.7337
vn 0.0591 -0.6781 -0.7326
vn 0.4475 0.0000 -0.8943
vn 0.6588 0.1534 -0.7365
vn 0.6588 -0.1534 -0.7365
vn -0.3616 -0.2661 -0.8935
vn -0.4425 -0.5147 -0.7344
vn -0.6216 -0.2678 -0.7361
vn -0.3616 0.2661 -0.8935
vn -0.6216 0.2678 -0.7361
vn -0.4425 0.5147 -0.7344
vn 0.1379 0.4299 -0.8923
vn 0.0591 0.6781 -0.7326
vn 0.3463 0.5846 -0.7337
vn 0.9480 0.1552 -0.2780
vn 0.9999 -0.0000 -0.0106
vn 0.9480 -0.1552 -0.2780
vn 0.4348 -0.8573 -0.2755
vn 0.3055 -0.9521 -0.0105
vn 0.1456 -0.9504 -0.2749
vn -0.6731 -0.6859 -0.2764
vn -0.8055 -0.5926 -0.0106
vn -0.8552 -0.4377 -0.2774
vn -0.8552 0.4377 -0.2774
vn -0.8055 0.5926 -0.0106
vn -0.6731 0.6859 -0.2764
vn 0.1456 0.9504 -0.2749
vn 0.3055 0.9521 -0.0105
vn 0.4348 0.8573 -0.2755
vn 0.8055 -0.5926 0.0106
vn 0.8552 -0.4377 0.2774
vn 0.6731 -0.6859 0.2764
vn -0.3055 -0.9521 0.0105
vn -0.1456 -0.9504 0.2749
vn -0.4348 -0.8573 0.2755
vn -0.9999 0.0000 0.0106
vn -0.9480 -0.1552 0.2780
vn -0.9480 0.1552 0.2780
vn -0.3055 0.9521 0.0105
vn -0.4348 0.8573 0.2755
vn -0.1456 0.9504 0.2749
vn 0.8055 0.5926 0.0106
vn 0.6731 0.6859 0.2764
vn 0.8552 0.4377 0.2774
vn 0.6216 -0.2678 0.7361
vn 0.3616 -0.2661 0.8935
vn 0.4425 -0.5147 0.7344
vn -0.0591 -0.6781 0.7326
vn -0.1379 -0.4299 0.8923
vn -0.3463 -0.5846 0.7337
vn -0.6588 -0.1534 0.7365
vn -0.4475 -0.0000 0.8943
vn -0.6588 0.1534 0.7365
vn -0.3463 0.5846 0.7337
vn -0.1379 0.4299 0.8923
vn -0.0591 0.6781 0.7326
vn 0.4425 0.5147 0.7344
vn 0.3616 0.2661 0.8935
vn 0.6216 0.2678 0.7361
vn 0.2245 0.6997 0.6783
vn 0.4935 0.7033 0.5117
vn 0.2649 -0.0000 0.9643
vn 0.0819 0.2550 0.9635
vn 0.8173 0.2593 0.5145
vn 0.7310 -0.0000 0.6824
vn -0.5900 0.4341 0.6808
vn -0.5081 0.6927 0.5119
vn -0.2143 0.1576 0.9640
vn 0.0090 0.8600 0.5102
vn -0.5900 -0.4341 0.6808
vn -0.8117 -0.2767 0.5144
vn -0.2143 -0.1576 0.9640
vn -0.8117 0.2767 0.5144
vn 0.2245 -0.6997 0.6783
vn 0.0090 -0.8600 0.5102
vn 0.0819 -0.2550 0.9635
vn -0.5081 -0.6927 0.5119
vn 0.8173 -0.2593 0.5145
vn 0.4935 -0.7033 0.5117
vn 0.8663 0.4385 -0.2392
vn 0.6770 0.6963 -0.2383
vn 0.9574 0.1612 0.2397
vn 0.4433 0.8643 0.2376
vn -0.1427 0.9610 -0.2370
vn -0.4433 0.8643 -0.2376
vn 0.1427 0.9610 0.2370
vn -0.6770 0.6963 0.2383
vn -0.9574 0.1612 -0.2397
vn -0.9574 -0.1612 -0.2397
vn -0.8663 0.4385 0.2392
vn -0.8663 -0.4385 0.2392
vn -0.4433 -0.8643 -0.2376
vn -0.1427 -0.9610 -0.2370
vn -0.6770 -0.6963 0.2383
vn 0.1427 -0.9610 0.2370
vn 0.6770 -0.6963 -0.2383
vn 0.8663 -0.4385 -0.2392
vn 0.4433 -0.8643 0.2376
vn 0.9574 -0.1612 0.2397
vn -0.0090 0.8600 -0.5102
vn 0.5081 0.6927 -0.5119
vn -0.8173 0.2593 -0.5145
vn -0.4935 0.7033 -0.5117
vn -0.4935 -0.7033 -0.5117
vn -0.8173 -0.2593 -0.5145
vn 0.5081 -0.6927 -0.5119
vn -0.0090 -0.8600 -0.5102
vn 0.8117 0.2767 -0.5144
vn 0.8117 -0.2767 -0.5144
vn 0.2143 0.1576 -0.9640
vn -0.0819 0.2550 -0.9635
vn 0.5900 0.4341 -0.6808
vn -0.2245 0.6997 -0.6783
vn -0.2649 0.0000 -0.9643
vn -0.7310 0.0000 -0.6824
vn -0.0819 -0.2550 -0.9635
vn -0.2245 -0.6997 -0.6783
vn 0.2143 -0.1576 -0.9640
vn 0.5900 -0.4341 -0.6808
vn 0.4171 -0.3068 -0.8555
vn 0.2589 -0.8069 -0.5310
vn 0.7174 -0.5278 -0.4547
vn -0.1590 -0.4955 -0.8539
vn -0.2725 -0.8493 -0.4522
vn 0.0000 0.0000 -1.0000
vn 0.8447 0.0000 -0.5353
vn 0.4171 0.3068 -0.8555
vn 0.7174 0.5278 -0.4547
vn -0.6812 -0.5012 -0.5336
vn -0.5161 0.0000 -0.8565
vn -0.8898 -0.0000 -0.4563
vn -0.6812 0.5012 -0.5336
vn -0.1590 0.4955 -0.8539
vn -0.2725 0.8493 -0.4522
vn 0.2589 0.8069 -0.5310
vn 0.9499 -0.3125 -0.0000
vn 0.9499 0.3125 -0.0000
vn 0.8898 -0.0000 0.4563
vn -0.0000 -1.0000 -0.0000
vn 0.5830 -0.8125 0.0000
vn 0.2725 -0.8493 0.4522
vn -0.9499 -0.3125 0.0000
vn -0.5830 -0.8125 -0.0000
vn -0.7174 -0.5278 0.4547
vn -0.5830 0.8125 -0.0000
vn -0.9499 0.3125 0.0000
vn -0.7174 0.5278 0.4547
vn 0.5830 0.8125 0.0000
vn -0.0000 1.0000 0.0000
vn 0.2725 0.8493 0.4522
vn 0.6812 -0.5012 0.5336
vn -0.2589 -0.8069 0.5310
vn -0.8447 -0.0000 0.5353
vn -0.2589 0.8069 0.5310
vn 0.6812 0.5012 0.5336
vn 0.1590 -0.4955 0.8539
vn 0.5161 -0.0000 0.8565
vn -0.0000 -0.0000 1.0000
vn -0.4171 -0.3068 0.8555
vn -0.4171 0.3068 0.8555
vn 0.1590 0.4955 0.8539
usemtl Default_OBJ
s 1
f 1/1/1 2/2/2 3/3/3
f 4/4/4 5/5/5 6/6/6
f 7/7/7 8/8/8 9/9/9
f 10/10/10 11/11/11 12/12/12
f 13/13/13 14/14/14 15/15/15
f 16/16/16 17/17/17 18/18/18
f 19/19/19 20/20/20 21/21/21
f 22/22/22 23/23/23 24/24/24
f 25/25/25 26/26/26 27/27/27
f 28/28/28 29/29/29 30/30/30
f 31/31/31 32/32/32 33/33/33
f 34/34/34 35/35/35 36/36/36
f 37/37/37 38/38/38 39/39/39
f 40/40/40 41/41/41 42/42/42
f 43/43/43 44/44/44 45/45/45
f 46/46/46 47/47/47 48/48/48
f 49/49/49 50/50/50 51/51/51
f 52/52/52 53/53/53 54/54/54
f 55/55/55 56/56/56 57/57/57
f 58/58/58 59/59/59 60/60/60
f 61/61/61 58/58/58 62/62/62
f 63/63/63 59/59/59 64/64/64
f 65/65/65 60/60/60 66/66/66
f 67/67/67 55/55/55 68/68/68
f 64/64/64 56/56/56 69/69/69
f 70/70/70 57/57/57 61/61/61
f 71/71/71 52/52/52 72/72/72
f 69/69/69 53/53/53 73/73/73
f 74/74/74 54/54/54 67/67/67
f 75/75/75 49/49/49 76/76/76
f 73/73/73 50/50/50 77/77/77
f 78/78/78 51/51/51 71/71/71
f 66/66/66 46/46/46 79/79/79
f 77/77/77 47/47/47 63/63/63
f 80/80/80 48/81/48 75/75/75
f 81/82/81 82/83/82 43/43/43
f 65/65/65 83/84/83 45/45/45
f 84/85/84 62/62/62 44/44/44
f 85/86/85 86/87/86 40/40/40
f 70/70/70 87/88/87 42/42/42
f 88/89/88 68/68/68 41/41/41
f 89/90/89 90/91/90 37/37/37
f 74/74/74 91/92/91 39/39/39
f 92/93/92 72/72/72 38/38/38
f 93/94/93 94/95/94 34/34/34
f 78/78/78 95/96/95 36/36/36
f 96/97/96 76/76/76 35/35/35
f 97/98/97 98/99/98 31/31/31
f 80/80/80 99/100/99 33/33/33
f 100/101/100 79/102/79 32/32/32
f 85/86/85 28/28/28 101/103/101
f 84/85/84 29/29/29 87/88/87
f 102/104/102 30/30/30 82/83/82
f 89/90/89 25/25/25 103/105/103
f 88/89/88 26/26/26 91/92/91
f 104/106/104 27/27/27 86/87/86
f 93/94/93 22/22/22 105/107/105
f 92/93/92 23/23/23 95/96/95
f 106/108/106 24/24/24 90/91/90
f 97/98/97 19/19/19 107/109/107
f 96/97/96 20/20/20 99/100/99
f 108/110/108 21/21/21 94/95/94
f 81/82/81 16/16/16 109/111/109
f 100/112/100 17/17/17 83/84/83
f 110/113/110 18/114/18 98/99/98
f 111/115/111 112/116/112 13/13/13
f 102/104/102 113/117/113 15/15/15
f 114/118/114 101/103/101 14/14/14
f 112/119/112 115/120/115 10/10/10
f 104/106/104 114/118/114 12/12/12
f 116/121/116 103/105/103 11/11/11
f 115/120/115 117/122/117 7/7/7
f 106/108/106 116/121/116 9/9/9
f 118/123/118 105/107/105 8/8/8
f 111/124/111 4/4/4 119/125/119
f 109/111/109 5/126/5 113/117/113
f 120/127/120 6/6/6 110/113/110
f 117/122/117 119/125/119 1/1/1
f 108/110/108 118/123/118 3/3/3
f 120/127/120 107/109/107 2/2/2
f 121/128/121 120/127/120 2/2/2
f 122/129/122 2/2/2 107/109/107
f 123/130/123 107/109/107 120/127/120
f 122/129/122 108/110/108 3/3/3
f 124/131/124 3/3/3 118/123/118
f 125/132/125 118/123/118 108/110/108
f 124/131/124 117/122/117 1/1/1
f 121/128/121 1/1/1 119/125/119
f 126/133/126 119/125/119 117/122/117
f 121/128/121 6/6/6 120/127/120
f 127/134/127 110/113/110 6/6/6
f 123/130/123 120/127/120 110/113/110
f 127/135/127 5/126/5 109/111/109
f 128/136/128 113/117/113 5/126/5
f 129/137/129 109/111/109 113/117/113
f 128/136/128 4/138/4 111/115/111
f 121/128/121 119/125/119 4/4/4
f 126/133/126 111/124/111 119/125/119
f 124/131/124 118/123/118 8/8/8
f 130/139/130 8/8/8 105/107/105
f 125/132/125 105/107/105 118/123/118
f 130/139/130 106/108/106 9/9/9
f 131/140/131 9/9/9 116/121/116
f 132/141/132 116/121/116 106/108/106
f 131/140/131 115/120/115 7/7/7
f 124/131/124 7/7/7 117/122/117
f 126/133/126 117/122/117 115/120/115
f 131/140/131 116/121/116 11/11/11
f 133/142/133 11/11/11 103/105/103
f 132/141/132 103/105/103 116/121/116
f 133/142/133 104/106/104 12/12/12
f 134/143/134 12/12/12 114/118/114
f 135/144/135 114/118/114 104/106/104
f 134/143/134 112/119/112 10/10/10
f 131/140/131 10/10/10 115/120/115
f 126/133/126 115/120/115 112/119/112
f 134/143/134 114/118/114 14/14/14
f 136/145/136 14/14/14 101/103/101
f 135/144/135 101/103/101 114/118/114
f 136/145/136 102/104/102 15/15/15
f 128/136/128 15/15/15 113/117/113
f 129/137/129 113/117/113 102/104/102
f 128/136/128 111/115/111 13/13/13
f 134/143/134 13/13/13 112/116/112
f 126/133/126 112/119/112 111/124/111
f 127/134/127 18/114/18 110/113/110
f 137/146/137 98/99/98 18/114/18
f 123/130/123 110/113/110 98/99/98
f 137/147/137 17/17/17 100/112/100
f 138/148/138 83/84/83 17/17/17
f 139/149/139 100/112/100 83/84/83
f 138/148/138 16/16/16 81/82/81
f 127/135/127 109/111/109 16/16/16
f 129/137/129 81/82/81 109/111/109
f 122/129/122 21/21/21 108/110/108
f 140/150/140 94/95/94 21/21/21
f 125/132/125 108/110/108 94/95/94
f 140/150/140 20/20/20 96/97/96
f 141/151/141 99/100/99 20/20/20
f 142/152/142 96/97/96 99/100/99
f 141/151/141 19/19/19 97/98/97
f 122/129/122 107/109/107 19/19/19
f 123/130/123 97/98/97 107/109/107
f 130/139/130 24/24/24 106/108/106
f 143/153/143 90/91/90 24/24/24
f 132/141/132 106/108/106 90/91/90
f 143/153/143 23/23/23 92/93/92
f 144/154/144 95/96/95 23/23/23
f 145/155/145 92/93/92 95/96/95
f 144/154/144 22/22/22 93/94/93
f 130/139/130 105/107/105 22/22/22
f 125/132/125 93/94/93 105/107/105
f 133/142/133 27/27/27 104/106/104
f 146/156/146 86/87/86 27/27/27
f 135/144/135 104/106/104 86/87/86
f 146/156/146 26/26/26 88/89/88
f 147/157/147 91/92/91 26/26/26
f 148/158/148 88/89/88 91/92/91
f 147/157/147 25/25/25 89/90/89
f 133/142/133 103/105/103 25/25/25
f 132/141/132 89/90/89 103/105/103
f 136/145/136 30/30/30 102/104/102
f 149/159/149 82/83/82 30/30/30
f 129/137/129 102/104/102 82/83/82
f 149/159/149 29/29/29 84/85/84
f 150/160/150 87/88/87 29/29/29
f 151/161/151 84/85/84 87/88/87
f 150/160/150 28/28/28 85/86/85
f 136/145/136 101/103/101 28/28/28
f 135/144/135 85/86/85 101/103/101
f 137/146/137 100/101/100 32/32/32
f 152/162/152 32/32/32 79/102/79
f 139/149/139 79/79/79 100/112/100
f 152/162/152 80/80/80 33/33/33
f 141/151/141 33/33/33 99/100/99
f 142/152/142 99/100/99 80/80/80
f 141/151/141 97/98/97 31/31/31
f 137/146/137 31/31/31 98/99/98
f 123/130/123 98/99/98 97/98/97
f 140/150/140 96/97/96 35/35/35
f 153/163/153 35/35/35 76/76/76
f 142/152/142 76/76/76 96/97/96
f 153/163/153 78/78/78 36/36/36
f 144/154/144 36/36/36 95/96/95
f 145/155/145 95/96/95 78/78/78
f 144/154/144 93/94/93 34/34/34
f 140/150/140 34/34/34 94/95/94
f 125/132/125 94/95/94 93/94/93
f 143/153/143 92/93/92 38/38/38
f 154/164/154 38/38/38 72/72/72
f 145/155/145 72/72/72 92/93/92
f 154/164/154 74/74/74 39/39/39
f 147/157/147 39/39/39 91/92/91
f 148/158/148 91/92/91 74/74/74
f 147/157/147 89/90/89 37/37/37
f 143/153/143 37/37/37 90/91/90
f 132/141/132 90/91/90 89/90/89
f 146/156/146 88/89/88 41/41/41
f 155/165/155 41/41/41 68/68/68
f 148/158/148 68/68/68 88/89/88
f 155/165/155 70/70/70 42/42/42
f 150/160/150 42/42/42 87/88/87
f 151/161/151 87/88/87 70/70/70
f 150/160/150 85/86/85 40/40/40
f 146/156/146 40/40/40 86/87/86
f 135/144/135 86/87/86 85/86/85
f 149/159/149 84/85/84 44/44/44
f 156/166/156 44/44/44 62/62/62
f 151/161/151 62/62/62 84/85/84
f 156/166/156 65/65/65 45/45/45
f 138/148/138 45/45/45 83/84/83
f 139/149/139 83/84/83 65/65/65
f 138/148/138 81/82/81 43/43/43
f 149/159/149 43/43/43 82/83/82
f 129/137/129 82/83/82 81/82/81
f 152/162/152 48/81/48 80/80/80
f 157/167/157 75/75/75 48/81/48
f 142/152/142 80/80/80 75/75/75
f 157/168/157 47/47/47 77/77/77
f 158/169/158 63/63/63 47/47/47
f 159/170/159 77/77/77 63/63/63
f 158/169/158 46/46/46 66/66/66
f 152/162/152 79/102/79 46/171/46
f 139/149/139 66/66/66 79/79/79
f 153/163/153 51/51/51 78/78/78
f 160/172/160 71/71/71 51/51/51
f 145/155/145 78/78/78 71/71/71
f 160/172/160 50/50/50 73/73/73
f 157/168/157 77/77/77 50/50/50
f 159/170/159 73/73/73 77/77/77
f 157/167/157 49/49/49 75/75/75
f 153/163/153 76/76/76 49/49/49
f 142/152/142 75/75/75 76/76/76
f 154/164/154 54/54/54 74/74/74
f 161/173/161 67/67/67 54/54/54
f 148/158/148 74/74/74 67/67/67
f 161/173/161 53/53/53 69/69/69
f 160/172/160 73/73/73 53/53/53
f 159/170/159 69/69/69 73/73/73
f 160/172/160 52/52/52 71/71/71
f 154/164/154 72/72/72 52/52/52
f 145/155/145 71/71/71 72/72/72
f 155/165/155 57/57/57 70/70/70
f 162/174/162 61/61/61 57/57/57
f 151/161/151 70/70/70 61/61/61
f 162/174/162 56/56/56 64/64/64
f 161/173/161 69/69/69 56/56/56
f 159/170/159 64/64/64 69/69/69
f 161/173/161 55/55/55 67/67/67
f 155/165/155 68/68/68 55/55/55
f 148/158/148 67/67/67 68/68/68
f 156/166/156 60/60/60 65/65/65
f 158/169/158 66/66/66 60/60/60
f 139/149/139 65/65/65 66/66/66
f 158/169/158 59/59/59 63/63/63
f 162/174/162 64/64/64 59/59/59
f 159/170/159 63/63/63 64/64/64
f 162/174/162 58/58/58 61/61/61
f 156/166/156 62/62/62 58/58/58
f 151/161/151 61/61/61 62/62/62
f 162/174/162 59/59/59 58/58/58
f 158/169/158 60/60/60 59/59/59
f 156/166/156 58/58/58 60/60/60
f 161/173/161 56/56/56 55/55/55
f 162/174/162 57/57/57 56/56/56
f 155/165/155 55/55/55 57/57/57
f 160/172/160 53/53/53 52/52/52
f 161/173/161 54/54/54 53/53/53
f 154/164/154 52/52/52 54/54/54
f 157/167/157 50/50/50 49/49/49
f 160/172/160 51/51/51 50/50/50
f 153/163/153 49/49/49 51/51/51
f 158/169/158 47/47/47 46/46/46
f 157/168/157 48/48/48 47/47/47
f 152/162/152 46/171/46 48/81/48
f 138/148/138 43/43/43 45/45/45
f 156/166/156 45/45/45 44/44/44
f 149/159/149 44/44/44 43/43/43
f 150/160/150 40/40/40 42/42/42
f 155/165/155 42/42/42 41/41/41
f 146/156/146 41/41/41 40/40/40
f 147/157/147 37/37/37 39/39/39
f 154/164/154 39/39/39 38/38/38
f 143/153/143 38/38/38 37/37/37
f 144/154/144 34/34/34 36/36/36
f 153/163/153 36/36/36 35/35/35
f 140/150/140 35/35/35 34/34/34
f 141/151/141 31/31/31 33/33/33
f 152/162/152 33/33/33 32/32/32
f 137/146/137 32/32/32 31/31/31
f 150/160/150 29/29/29 28/28/28
f 149/159/149 30/30/30 29/29/29
f 136/145/136 28/28/28 30/30/30
f 147/157/147 26/26/26 25/25/25
f 146/156/146 27/27/27 26/26/26
f 133/142/133 25/25/25 27/27/27
f 144/154/144 23/23/23 22/22/22
f 143/153/143 24/24/24 23/23/23
f 130/139/130 22/22/22 24/24/24
f 141/151/141 20/20/20 19/19/19
f 140/150/140 21/21/21 20/20/20
f 122/129/122 19/19/19 21/21/21
f 138/148/138 17/17/17 16/16/16
f 137/147/137 18/18/18 17/17/17
f 127/135/127 16/16/16 18/18/18
f 128/136/128 13/13/13 15/15/15
f 136/145/136 15/15/15 14/14/14
f 134/143/134 14/14/14 13/13/13
f 134/143/134 10/10/10 12/12/12
f 133/142/133 12/12/12 11/11/11
f 131/140/131 11/11/11 10/10/10
f 131/140/131 7/7/7 9/9/9
f 130/139/130 9/9/9 8/8/8
f 124/131/124 8/8/8 7/7/7
f 128/136/128 5/126/5 4/138/4
f 127/134/127 6/6/6 5/5/5
f 121/128/121 4/4/4 6/6/6
f 124/131/124 1/1/1 3/3/3
f 122/129/122 3/3/3 2/2/2
f 121/128/121 2/2/2 1/1/1
